HIERARCHY
ROOT Hips
{
	OFFSET -22.826694 38.078640 -33.586449
	CHANNELS 6 Xposition Yposition Zposition Xrotation Yrotation Zrotation
	JOINT Chest
	{
		OFFSET -9.624748 8.890190 -3.805649
		CHANNELS 3 Xrotation Yrotation Zrotation
		JOINT Chest2
		{
			OFFSET -12.027176 17.527416 2.683884
			CHANNELS 3 Xrotation Yrotation Zrotation
			JOINT Chest3
			{
				OFFSET -5.281109 13.947174 -0.637299
				CHANNELS 3 Xrotation Yrotation Zrotation
				JOINT Neck
				{
					OFFSET -4.928207 16.562874 0.005131
					CHANNELS 3 Xrotation Yrotation Zrotation
					JOINT Head
					{
						OFFSET 1.644936 10.185417 1.838261
						CHANNELS 3 Xrotation Yrotation Zrotation
						End Site
						{
							OFFSET 1.612370 10.201843 1.774918
						}
					}
				}
				JOINT LeftCollar
				{
					OFFSET 0.817715 14.075378 1.737637
					CHANNELS 3 Xrotation Yrotation Zrotation
					JOINT LeftUpArm
					{
						OFFSET 14.788128 0.128975 -9.475975
						CHANNELS 3 Xrotation Yrotation Zrotation
						JOINT LeftLowArm
						{
							OFFSET 33.503674 -3.248322 2.584648
							CHANNELS 3 Xrotation Yrotation Zrotation
							JOINT LeftHand
							{
								OFFSET 25.332533 13.915558 8.097317
								CHANNELS 3 Xrotation Yrotation Zrotation
								End Site
								{
									OFFSET 5.536581 3.041321 1.769711
								}
							}
						}
					}
				}
				JOINT RightCollar
				{
					OFFSET -6.990360 11.751625 3.852636
					CHANNELS 3 Xrotation Yrotation Zrotation
					JOINT RightUpArm
					{
						OFFSET -16.464176 5.940331 -1.462778
						CHANNELS 3 Xrotation Yrotation Zrotation
						JOINT RightLowArm
						{
							OFFSET -10.532181 29.814308 11.828537
							CHANNELS 3 Xrotation Yrotation Zrotation
							JOINT RightHand
							{
								OFFSET 16.791916 20.198784 14.525694
								CHANNELS 3 Xrotation Yrotation Zrotation
								End Site
								{
									OFFSET 3.670017 4.414673 3.174720
								}
							}
						}
					}
				}
			}
		}
	}
	JOINT LeftUpLeg
	{
		OFFSET 6.973442 7.129368 -0.981007
		CHANNELS 3 Xrotation Yrotation Zrotation
		JOINT LeftLowLeg
		{
			OFFSET 43.686615 -4.418064 17.774984
			CHANNELS 3 Xrotation Yrotation Zrotation
			JOINT LeftFoot
			{
				OFFSET 44.408165 -4.179310 -3.319107
				CHANNELS 3 Xrotation Yrotation Zrotation
				JOINT LeftToe
				{
					OFFSET 21.579231 -3.971626 8.838709
					CHANNELS 3 Xrotation Yrotation Zrotation
					End Site
					{
						OFFSET 12.409897 2.897320 19.928846
					}
				}
			}
		}
	}
	JOINT RightUpLeg
	{
		OFFSET -6.973305 -7.129499 0.981064
		CHANNELS 3 Xrotation Yrotation Zrotation
		JOINT RightLowLeg
		{
			OFFSET -2.863590 -6.832363 46.788139
			CHANNELS 3 Xrotation Yrotation Zrotation
			JOINT RightFoot
			{
				OFFSET 28.774321 -7.219742 -33.473785
				CHANNELS 3 Xrotation Yrotation Zrotation
				JOINT RightToe
				{
					OFFSET 20.398632 10.945648 4.862646
					CHANNELS 3 Xrotation Yrotation Zrotation
					End Site
					{
						OFFSET 11.787077 9.455328 18.199387
					}
				}
			}
		}
	}
}
MOTION
Frames: 10
Frame Time: 0.033333
-20.079283 37.657593 -33.398293 1.135705 0.180802 -1.808606 1.086805 0.591789 -2.085266 -2.824655 -0.779271 -0.428961 1.846296 0.408262 0.795271 -1.363719 0.969074 -0.635595 -0.000001 -0.000001 -0.000001 1.743733 -2.318843 1.529181 0.227994 2.164835 1.904594 0.365518 4.122686 -6.143327 0.000000 0.000001 -0.000000 0.232529 1.993023 -1.908138 2.709115 4.888576 -5.371983 -9.949312 -0.270075 3.618100 0.000003 0.000007 0.000000 -1.250651 -1.510680 1.414887 -0.217953 1.021064 0.881176 0.365552 0.436149 -0.278774 0.000003 -0.000001 -0.000002 -0.736032 -0.875980 -0.028091 179.749214 -180.070779 181.587191 -1.814112 -0.465612 0.046945 0.000003 0.000003 -0.000003 
-20.417252 37.717739 -33.425743 1.331311 0.798657 -1.728221 0.382912 0.078633 -1.738719 -1.918938 -0.567937 -0.275927 1.209356 0.344211 0.481483 -1.136132 0.699758 -0.490276 0.000002 0.000002 -0.000000 1.654635 -2.620815 1.217222 -0.020324 2.192817 1.498347 -0.086073 3.482111 -5.015197 -0.000000 -0.000002 -0.000001 -0.121493 1.423500 -1.710834 1.778505 4.004542 -4.422063 -7.466635 -0.078970 3.197340 0.000008 0.000004 -0.000006 -1.408219 -2.076286 1.361210 0.131783 1.655045 0.683591 0.396728 0.002397 -0.192145 -0.000001 -0.000001 -0.000000 -0.854285 -1.423450 -0.361692 179.570687 -180.043664 181.985596 -1.378383 -0.069925 -0.029997 0.000001 -0.000004 -0.000003 
-20.724295 37.774712 -33.446949 1.878539 0.866594 -1.421790 -0.080942 -0.247341 -1.775784 -1.498039 -0.363852 -0.374948 1.041992 0.030665 0.590251 -0.018544 0.127758 -0.312764 -0.000001 -0.000001 -0.000000 1.118101 -1.877871 0.915004 -0.150996 2.004778 1.100132 -0.289701 2.774091 -3.707585 -0.000001 0.000001 -0.000002 -0.196021 1.220749 -1.502389 1.166245 2.968825 -3.291951 -7.820161 0.839098 1.746915 0.000004 0.000000 0.000001 -1.289816 -1.648512 1.278110 -0.118177 0.717092 0.502247 0.132293 0.503890 -0.148299 0.000002 -0.000001 -0.000000 -1.531863 -1.510745 -0.069189 179.884547 -180.077391 181.129363 -1.649857 -0.159437 -0.063121 -0.000000 -0.000000 -0.000003 
-21.023235 37.816448 -33.476147 2.126494 0.901687 -1.248167 -0.322217 -0.358939 -1.529484 -1.530085 -0.409081 -0.234279 1.357866 0.280374 0.321694 -0.928494 0.274082 -0.176953 -0.000001 -0.000001 -0.000000 1.386853 -2.470707 0.675149 -0.042170 2.623419 0.888402 -0.400393 1.797257 -2.393078 0.000000 0.000001 -0.000002 -0.705334 0.116009 -1.353718 1.499570 2.757272 -2.344599 -7.389903 1.390647 0.811630 0.000002 0.000002 -0.000004 -0.972586 -1.153436 1.244782 -0.218577 0.032356 0.345830 -0.159717 0.982413 -0.022625 0.000003 0.000001 0.000003 -1.747314 -1.368390 0.023791 180.017764 -180.183314 180.722817 -1.691605 -0.208742 -0.130186 -0.000000 0.000002 -0.000002 
-21.290159 37.865814 -33.494392 1.623051 0.512111 -1.181875 0.645304 0.438779 -1.170837 -2.667443 -0.882849 -0.086593 2.298474 -0.224996 -0.063545 -1.226085 0.582264 -0.389989 0.000001 -0.000001 -0.000001 1.071412 -2.329581 0.562013 -0.142220 3.158176 0.605508 -0.658639 1.800971 -1.590037 -0.000001 0.000000 -0.000000 -0.864922 -0.041399 -1.262971 0.904246 2.611563 -2.703636 -7.099210 1.082075 1.570370 0.000004 0.000008 -0.000005 -0.766396 -0.916689 1.130109 -0.033160 0.935578 0.253849 0.110913 0.627313 -0.059836 0.000002 0.000000 -0.000005 -1.248800 -0.803239 0.151946 179.901377 -179.885572 180.853683 -1.098369 -0.137030 -0.174364 -0.000003 0.000000 -0.000003 
-21.533964 37.899315 -33.512344 1.555302 1.125318 -1.115300 0.329154 0.180782 -0.793918 -1.982555 -0.608779 -0.123575 1.322659 0.231110 -0.158583 -0.596615 -0.175994 -0.044322 -0.000001 0.000001 0.000000 1.598325 -3.028564 0.508796 0.019554 2.537634 0.510661 -0.605192 1.900320 -0.803484 0.000001 0.000001 -0.000001 -0.794864 -0.480308 -0.927002 0.921655 1.799877 -1.767180 -5.782862 1.196390 0.451079 0.000001 -0.000001 -0.000005 -0.796150 -1.187054 0.976824 -0.257740 0.350990 0.297287 0.054224 0.474232 0.055434 0.000002 -0.000001 -0.000002 -1.191437 -1.277739 -0.196682 179.943424 -180.080806 181.051745 -0.947705 -0.153487 -0.272288 -0.000001 0.000001 -0.000002 
-21.754593 37.928452 -33.530895 2.003537 1.815533 -1.097058 -0.502013 -0.454126 -0.377602 -1.040730 -0.478267 0.148315 0.765069 -0.048469 -0.530650 -0.816579 0.047102 -0.016305 -0.000001 -0.000001 -0.000000 1.661090 -2.879829 0.480378 0.227852 2.627174 0.240788 -0.526778 1.909622 0.051286 0.000001 0.000000 -0.000002 -1.063876 -1.402167 -0.944060 0.618940 0.965302 -1.136760 -5.449233 1.521735 -0.784937 0.000007 0.000005 -0.000003 -1.099809 -1.896084 1.010011 -0.316923 -0.483524 0.369667 -0.244944 1.005500 -0.033876 -0.000002 0.000001 -0.000002 -1.670410 -2.015737 -0.510518 179.690406 -179.982014 181.606397 -0.889758 -0.318411 -0.059794 -0.000000 0.000000 -0.000003 
-21.953491 37.971329 -33.536266 1.671185 1.935275 -0.937342 -0.607629 -0.508458 -0.352398 -1.534640 -0.663544 0.147805 1.368591 0.043495 -0.490966 -0.624452 -0.001808 -0.103819 -0.000001 -0.000001 0.000000 1.489220 -2.884585 0.281747 0.072162 2.427827 0.372711 -0.654699 1.975808 0.143928 -0.000000 0.000000 -0.000002 -1.008888 -1.197091 -0.894702 1.185834 1.809933 -1.196033 -3.493036 0.719276 -0.006715 0.000003 0.000006 -0.000001 -1.084420 -1.980018 0.788955 -0.433097 -0.482701 0.364121 -0.073521 0.630157 -0.022612 0.000003 0.000000 -0.000001 -1.344826 -1.957719 -0.591287 179.685215 -179.945254 181.582778 -1.050952 -0.570329 0.103135 -0.000000 0.000002 -0.000002 
-22.132658 37.996197 -33.550545 1.527032 2.228812 -0.931788 -1.092157 -0.863591 0.050058 -0.470439 -0.300869 0.144243 0.859483 -0.730835 -0.526231 -0.749911 0.180983 -0.229697 0.000000 0.000001 0.000000 0.904828 -2.006994 0.189733 -0.023256 2.091882 0.377104 -0.421971 1.390568 0.036747 -0.000000 0.000000 -0.000002 -0.997462 -1.006533 -0.942628 0.511017 1.398658 -1.163174 -3.301540 0.552276 0.058826 0.000007 0.000004 -0.000006 -1.142497 -2.209607 0.681593 -0.359919 -0.578962 0.424174 -0.111312 0.527555 -0.027996 0.000001 -0.000001 -0.000003 -1.257952 -2.193480 -0.837367 179.456418 -179.885927 182.092365 -0.292718 -0.414148 0.057003 -0.000002 -0.000003 -0.000003 
-22.304909 38.009796 -33.566772 1.229477 1.928789 -0.887590 -0.860264 -0.695437 0.223585 -0.462855 -0.225602 0.098774 0.897791 -1.311137 -0.387684 -0.899945 0.330893 -0.352155 -0.000001 0.000001 -0.000000 0.137035 -0.302524 0.102785 0.154916 1.115186 0.336757 -0.027386 1.140328 0.016450 0.000000 -0.000000 -0.000001 -0.846287 -1.203849 -0.771493 -0.043352 0.351768 -1.031125 -3.801669 0.684490 -0.429178 0.000007 0.000004 -0.000004 -0.959514 -1.783457 0.680644 -0.445918 -0.540011 0.303996 0.180974 0.179270 -0.035685 -0.000002 0.000000 0.000001 -0.996038 -1.800742 -0.708870 179.685406 -179.850724 181.540254 -0.520409 -0.189414 -0.122067 0.000001 0.000001 -0.000003 
